<?xml version="1.0" encoding="UTF-8"?><svg id="a" xmlns="http://www.w3.org/2000/svg" viewBox="0 0 1526 1526"><defs><style>.b{fill:none;stroke:#fff;stroke-miterlimit:10;stroke-width:30px;}.c{fill:#fff;}</style></defs><circle class="b" cx="763" cy="763" r="748"/><g><path class="c" d="M707.39,812.08c-31.13-35.9-69.5-56.85-115.13-62.87l.53-3.18c38.55-10.25,68.35-30.59,89.4-61.01,21.04-30.41,31.57-67.2,31.57-110.35,0-66.13-22.11-115.66-66.32-148.55-44.22-32.89-106.29-49.34-186.22-49.34h-203.2v28.57h42.38v.08h160.82c73.56,0,129.19,14.06,166.86,42.18,37.67,28.12,56.5,69.77,56.5,124.94s-17.07,96.03-51.2,123.62c-34.14,27.59-84.62,41.91-151.47,42.97h-195.24v-.35h-28.65v28.52h86.52v.48h170.79c64.37,0,115.47,15.57,153.33,46.69,37.84,31.13,56.77,72.15,56.77,123.08,0,57.65-18.75,102.58-56.24,134.76-37.5,32.19-88.78,48.28-153.86,48.28h-228.66v-.16h-28.65v28.81h257.31c71.8,0,129.54-18.57,173.22-55.71,43.68-37.14,65.52-89.48,65.52-157.04,0-47.04-15.57-88.51-46.69-124.41Z"/><g><polygon class="c" points="815.91 403.88 1267.98 403.88 1267.98 376.76 815.84 376.76 815.84 404.53 815.91 404.53 815.91 403.88"/><polygon class="c" points="815.91 1148.59 1267.98 1148.59 1267.98 1121.47 815.84 1121.47 815.84 1149.24 815.91 1149.24 815.91 1148.59"/><polygon class="c" points="1214.81 732.18 815.84 732.18 815.84 759.95 815.91 759.95 815.91 759.3 1214.81 759.3 1214.81 732.18"/></g></g></svg>